<svg id="visual" viewBox="0 0 1920 1080" width="1920" height="1080" xmlns="http://www.w3.org/2000/svg" xmlns:xlink="http://www.w3.org/1999/xlink" version="1.1"><rect x="0" y="0" width="1920" height="1080" fill="#1e2262"></rect><defs><linearGradient id="grad1_0" x1="43.8%" y1="100%" x2="100%" y2="0%"><stop offset="14.444444444444446%" stop-color="#1e2262" stop-opacity="1"></stop><stop offset="85.55555555555554%" stop-color="#1e2262" stop-opacity="1"></stop></linearGradient></defs><defs><linearGradient id="grad2_0" x1="0%" y1="100%" x2="56.3%" y2="0%"><stop offset="14.444444444444446%" stop-color="#1e2262" stop-opacity="1"></stop><stop offset="85.55555555555554%" stop-color="#1e2262" stop-opacity="1"></stop></linearGradient></defs><g transform="translate(1920, 1080)"><path d="M-648 0C-573.1 -54.4 -498.3 -108.8 -480.4 -199C-462.5 -289.2 -501.7 -415.1 -458.2 -458.2C-414.8 -501.3 -288.7 -461.7 -198.6 -479.5C-108.5 -497.3 -54.2 -572.7 0 -648L0 0Z" fill="#2e3278"></path></g><g transform="translate(0, 0)"><path d="M648 0C614.8 84.4 581.6 168.7 525.7 217.7C469.7 266.7 391 280.4 348.6 348.6C306.2 416.8 300 539.7 248 598.7C195.9 657.7 98 652.8 0 648L0 0Z" fill="#2e3278"></path></g></svg>