<svg xmlns="http://www.w3.org/2000/svg" version="1.1" xmlns:xlink="http://www.w3.org/1999/xlink" xmlns:svgjs="http://svgjs.com/svgjs" width="1920" height="1080" preserveAspectRatio="none" viewBox="0 0 1920 1080"><g mask="url(&quot;#SvgjsMask1078&quot;)" fill="none"><rect width="1920" height="1080" x="0" y="0" fill="rgba(30, 32, 62, 1)"></rect><path d="M0,692.954C133.685,704.189,257.552,644.81,381.668,593.887C531.563,532.388,732.975,512.851,799.285,365.021C865.659,217.046,731.438,57.893,692.733,-99.6C658.524,-238.799,683.972,-403.218,585.001,-506.907C486.681,-609.915,321.247,-588.705,185.334,-631.191C46.344,-674.638,-77.541,-766.292,-223.004,-759.484C-389.091,-751.711,-563.99,-708.139,-681.606,-590.615C-801.881,-470.434,-843.633,-292.86,-859.419,-123.566C-874.688,40.19,-871.173,222.164,-769.444,351.393C-671.814,475.414,-486.816,468.983,-342.553,533.022C-224.994,585.207,-128.169,682.182,0,692.954" fill="#181931"></path><path d="M1920 1980.829C2086.872 1967.12 2239.404 1884.3020000000001 2367.927 1776.989 2486.315 1678.1390000000001 2564.342 1543.311 2617.423 1398.502 2667.499 1261.893 2691.717 1115.782 2662.551 973.237 2634.364 835.476 2537.277 730.129 2457.04 614.653 2366.616 484.515 2312.236 305.94100000000003 2162.614 253.73199999999997 2012.671 201.41099999999994 1859.5720000000001 310.595 1706.458 352.744 1550.2649999999999 395.741 1375.992 396.087 1254.8310000000001 503.62800000000004 1127.2820000000002 616.838 1031.138 781.65 1031.088 952.194 1031.04 1117.582 1188.818 1232.135 1254.5729999999999 1383.8899999999999 1322.1689999999999 1539.895 1295.578 1741.158 1422.137 1854.691 1552.2069999999999 1971.374 1745.85 1995.136 1920 1980.829" fill="#24274b"></path></g><defs><mask id="SvgjsMask1078"><rect width="1920" height="1080" fill="#ffffff"></rect></mask></defs></svg>