<svg id="visual" viewBox="0 0 960 540" width="960" height="540" xmlns="http://www.w3.org/2000/svg" xmlns:xlink="http://www.w3.org/1999/xlink" version="1.1"><rect x="0" y="0" width="960" height="540" fill="#27292d"></rect><defs><linearGradient id="grad1_0" x1="43.8%" y1="100%" x2="100%" y2="0%"><stop offset="14.444444444444446%" stop-color="#27292d" stop-opacity="1"></stop><stop offset="85.55555555555554%" stop-color="#27292d" stop-opacity="1"></stop></linearGradient></defs><defs><linearGradient id="grad2_0" x1="0%" y1="100%" x2="56.3%" y2="0%"><stop offset="14.444444444444446%" stop-color="#27292d" stop-opacity="1"></stop><stop offset="85.55555555555554%" stop-color="#27292d" stop-opacity="1"></stop></linearGradient></defs><g transform="translate(960, 540)"><path d="M-324 0C-315.9 -44.1 -307.7 -88.2 -283.6 -117.5C-259.5 -146.7 -219.5 -161.1 -193 -193C-166.6 -225 -153.9 -274.6 -124 -299.3C-94.1 -324.1 -47 -324 0 -324L0 0Z" fill="#393b41"></path></g><g transform="translate(0, 0)"><path d="M324 0C322.2 44.9 320.3 89.8 299.3 124C278.4 158.2 238.3 181.7 205.1 205.1C171.9 228.5 145.5 251.8 112.5 271.6C79.5 291.4 39.7 307.7 0 324L0 0Z" fill="#393b41"></path></g></svg>