<svg id="visual" viewBox="0 0 1920 2080" width="1920" height="2080" xmlns="http://www.w3.org/2000/svg" xmlns:xlink="http://www.w3.org/1999/xlink" version="1.1"><rect x="0" y="0" width="1920" height="2080" fill="#282e28"></rect><defs><linearGradient id="grad1_0" x1="0%" y1="100%" x2="100%" y2="0%"><stop offset="30%" stop-color="#282e28" stop-opacity="1"></stop><stop offset="70%" stop-color="#282e28" stop-opacity="1"></stop></linearGradient></defs><defs><linearGradient id="grad2_0" x1="0%" y1="100%" x2="100%" y2="0%"><stop offset="30%" stop-color="#282e28" stop-opacity="1"></stop><stop offset="70%" stop-color="#282e28" stop-opacity="1"></stop></linearGradient></defs><g transform="translate(1920, 2080)"><path d="M-849.2 0C-778.1 -85.4 -706.9 -170.8 -677.2 -280.5C-647.5 -390.2 -659.1 -524.2 -600.5 -600.5C-541.9 -676.7 -413 -695.3 -301.2 -727.1C-189.4 -758.9 -94.7 -804.1 0 -849.2L0 0Z" fill="#3b4038"></path></g><g transform="translate(0, 0)"><path d="M849.2 0C749.6 73 650 146 624.5 258.7C599.1 371.3 647.9 523.6 600.5 600.5C553 677.3 409.3 678.8 293.1 707.7C177 736.6 88.5 792.9 0 849.2L0 0Z" fill="#3b4038"></path></g></svg>